<svg xmlns="http://www.w3.org/2000/svg" viewBox="0 0 220 220" width="880" height="880">
  <defs>
    <radialGradient id="heroGlow" cx="0.5" cy="0.5" r="0.5">
      <stop offset="0" stop-color="#3a2d71" stop-opacity="0.9"/>
      <stop offset="1" stop-color="#12101f" stop-opacity="1"/>
    </radialGradient>
    <linearGradient id="g-l1" x1="0" y1="0" x2="1" y2="1">
      <stop offset="0" stop-color="#ffb703"/>
      <stop offset="1" stop-color="#e85d04"/>
    </linearGradient>
    <linearGradient id="g-t1" x1="0" y1="0" x2="1" y2="1">
      <stop offset="0" stop-color="#c77dff"/>
      <stop offset="1" stop-color="#7b2cbf"/>
    </linearGradient>
    <linearGradient id="g-s1" x1="0" y1="0" x2="1" y2="1">
      <stop offset="0" stop-color="#80ffdb"/>
      <stop offset="1" stop-color="#0096c7"/>
    </linearGradient>
    <linearGradient id="g-i1" x1="0" y1="0" x2="1" y2="1">
      <stop offset="0" stop-color="#4cc9f0"/>
      <stop offset="1" stop-color="#3a0ca3"/>
    </linearGradient>
    <linearGradient id="g-o1" x1="0" y1="0" x2="1" y2="1">
      <stop offset="0" stop-color="#ff5d8f"/>
      <stop offset="1" stop-color="#c9184a"/>
    </linearGradient>
    <linearGradient id="g-j1" x1="0" y1="0" x2="1" y2="1">
      <stop offset="0" stop-color="#38b000"/>
      <stop offset="1" stop-color="#007200"/>
    </linearGradient>
    <linearGradient id="g-o2" x1="0" y1="0" x2="1" y2="1">
      <stop offset="0" stop-color="#f9c74f"/>
      <stop offset="1" stop-color="#f3722c"/>
    </linearGradient>
  </defs>
  <rect x="0" y="0" width="220" height="220" rx="20" fill="url(#heroGlow)"/>
  <rect x="0.75" y="0.75" width="218.5" height="218.5" rx="20" fill="none" stroke="rgba(155,93,229,0.35)" stroke-width="1.5"/>
  <circle cx="40" cy="70" r="1.4" fill="#fff" opacity="0.35"/>
  <circle cx="188" cy="96" r="1.2" fill="#fff" opacity="0.3"/>
  <circle cx="120" cy="196" r="1.5" fill="#fff" opacity="0.25"/>
  <circle cx="176" cy="180" r="1" fill="#fff" opacity="0.35"/>
  <g transform="translate(26, 22) rotate(-18) scale(1)">
    <rect x="0" y="0" width="14.5" height="14.5" rx="3" fill="url(#g-l1)" stroke="rgba(255,255,255,0.35)" stroke-width="0.8"/>
    <rect x="2" y="1.5" width="9.5" height="4" rx="2" fill="rgba(255,255,255,0.45)"/>
    <rect x="0" y="16" width="14.5" height="14.5" rx="3" fill="url(#g-l1)" stroke="rgba(255,255,255,0.35)" stroke-width="0.8"/>
    <rect x="2" y="17.5" width="9.5" height="4" rx="2" fill="rgba(255,255,255,0.45)"/>
    <rect x="0" y="32" width="14.5" height="14.5" rx="3" fill="url(#g-l1)" stroke="rgba(255,255,255,0.35)" stroke-width="0.8"/>
    <rect x="2" y="33.5" width="9.5" height="4" rx="2" fill="rgba(255,255,255,0.45)"/>
    <rect x="16" y="32" width="14.5" height="14.5" rx="3" fill="url(#g-l1)" stroke="rgba(255,255,255,0.35)" stroke-width="0.8"/>
    <rect x="18" y="33.5" width="9.5" height="4" rx="2" fill="rgba(255,255,255,0.45)"/>
  </g>
  <g transform="translate(118, 16) rotate(12) scale(1)">
    <rect x="0" y="0" width="14.5" height="14.5" rx="3" fill="url(#g-t1)" stroke="rgba(255,255,255,0.35)" stroke-width="0.8"/>
    <rect x="2" y="1.5" width="9.5" height="4" rx="2" fill="rgba(255,255,255,0.45)"/>
    <rect x="16" y="0" width="14.5" height="14.5" rx="3" fill="url(#g-t1)" stroke="rgba(255,255,255,0.35)" stroke-width="0.8"/>
    <rect x="18" y="1.5" width="9.5" height="4" rx="2" fill="rgba(255,255,255,0.45)"/>
    <rect x="32" y="0" width="14.5" height="14.5" rx="3" fill="url(#g-t1)" stroke="rgba(255,255,255,0.35)" stroke-width="0.8"/>
    <rect x="34" y="1.5" width="9.5" height="4" rx="2" fill="rgba(255,255,255,0.45)"/>
    <rect x="16" y="16" width="14.5" height="14.5" rx="3" fill="url(#g-t1)" stroke="rgba(255,255,255,0.35)" stroke-width="0.8"/>
    <rect x="18" y="17.5" width="9.5" height="4" rx="2" fill="rgba(255,255,255,0.45)"/>
  </g>
  <g transform="translate(24, 106) rotate(8) scale(1.1)">
    <rect x="16" y="0" width="14.5" height="14.5" rx="3" fill="url(#g-s1)" stroke="rgba(255,255,255,0.35)" stroke-width="0.8"/>
    <rect x="18" y="1.5" width="9.5" height="4" rx="2" fill="rgba(255,255,255,0.45)"/>
    <rect x="32" y="0" width="14.5" height="14.5" rx="3" fill="url(#g-s1)" stroke="rgba(255,255,255,0.35)" stroke-width="0.8"/>
    <rect x="34" y="1.5" width="9.5" height="4" rx="2" fill="rgba(255,255,255,0.45)"/>
    <rect x="0" y="16" width="14.5" height="14.5" rx="3" fill="url(#g-s1)" stroke="rgba(255,255,255,0.35)" stroke-width="0.8"/>
    <rect x="2" y="17.5" width="9.5" height="4" rx="2" fill="rgba(255,255,255,0.45)"/>
    <rect x="16" y="16" width="14.5" height="14.5" rx="3" fill="url(#g-s1)" stroke="rgba(255,255,255,0.35)" stroke-width="0.8"/>
    <rect x="18" y="17.5" width="9.5" height="4" rx="2" fill="rgba(255,255,255,0.45)"/>
  </g>
  <g transform="translate(96, 84) rotate(-28) scale(1)">
    <rect x="0" y="0" width="14.5" height="14.5" rx="3" fill="url(#g-i1)" stroke="rgba(255,255,255,0.35)" stroke-width="0.8"/>
    <rect x="2" y="1.5" width="9.5" height="4" rx="2" fill="rgba(255,255,255,0.45)"/>
    <rect x="16" y="0" width="14.5" height="14.5" rx="3" fill="url(#g-i1)" stroke="rgba(255,255,255,0.35)" stroke-width="0.8"/>
    <rect x="18" y="1.5" width="9.5" height="4" rx="2" fill="rgba(255,255,255,0.45)"/>
    <rect x="32" y="0" width="14.5" height="14.5" rx="3" fill="url(#g-i1)" stroke="rgba(255,255,255,0.35)" stroke-width="0.8"/>
    <rect x="34" y="1.5" width="9.5" height="4" rx="2" fill="rgba(255,255,255,0.45)"/>
    <rect x="48" y="0" width="14.5" height="14.5" rx="3" fill="url(#g-i1)" stroke="rgba(255,255,255,0.35)" stroke-width="0.8"/>
    <rect x="50" y="1.5" width="9.5" height="4" rx="2" fill="rgba(255,255,255,0.45)"/>
  </g>
  <g transform="translate(148, 128) rotate(20) scale(1)">
    <rect x="0" y="0" width="14.5" height="14.5" rx="3" fill="url(#g-o1)" stroke="rgba(255,255,255,0.35)" stroke-width="0.8"/>
    <rect x="2" y="1.5" width="9.5" height="4" rx="2" fill="rgba(255,255,255,0.45)"/>
    <rect x="16" y="0" width="14.5" height="14.5" rx="3" fill="url(#g-o1)" stroke="rgba(255,255,255,0.35)" stroke-width="0.8"/>
    <rect x="18" y="1.5" width="9.5" height="4" rx="2" fill="rgba(255,255,255,0.45)"/>
    <rect x="0" y="16" width="14.5" height="14.5" rx="3" fill="url(#g-o1)" stroke="rgba(255,255,255,0.35)" stroke-width="0.8"/>
    <rect x="2" y="17.5" width="9.5" height="4" rx="2" fill="rgba(255,255,255,0.45)"/>
    <rect x="16" y="16" width="14.5" height="14.5" rx="3" fill="url(#g-o1)" stroke="rgba(255,255,255,0.35)" stroke-width="0.8"/>
    <rect x="18" y="17.5" width="9.5" height="4" rx="2" fill="rgba(255,255,255,0.45)"/>
  </g>
  <g transform="translate(70, 140) rotate(30) scale(0.9)">
    <rect x="16" y="0" width="14.5" height="14.5" rx="3" fill="url(#g-j1)" stroke="rgba(255,255,255,0.35)" stroke-width="0.8"/>
    <rect x="18" y="1.5" width="9.5" height="4" rx="2" fill="rgba(255,255,255,0.45)"/>
    <rect x="16" y="16" width="14.5" height="14.5" rx="3" fill="url(#g-j1)" stroke="rgba(255,255,255,0.35)" stroke-width="0.8"/>
    <rect x="18" y="17.5" width="9.5" height="4" rx="2" fill="rgba(255,255,255,0.45)"/>
    <rect x="16" y="32" width="14.5" height="14.5" rx="3" fill="url(#g-j1)" stroke="rgba(255,255,255,0.35)" stroke-width="0.8"/>
    <rect x="18" y="33.5" width="9.5" height="4" rx="2" fill="rgba(255,255,255,0.45)"/>
    <rect x="0" y="32" width="14.5" height="14.5" rx="3" fill="url(#g-j1)" stroke="rgba(255,255,255,0.35)" stroke-width="0.8"/>
    <rect x="2" y="33.5" width="9.5" height="4" rx="2" fill="rgba(255,255,255,0.45)"/>
  </g>
  <g transform="translate(160, 44) rotate(-10) scale(0.75)">
    <rect x="0" y="0" width="14.5" height="14.5" rx="3" fill="url(#g-o2)" stroke="rgba(255,255,255,0.35)" stroke-width="0.8"/>
    <rect x="2" y="1.5" width="9.5" height="4" rx="2" fill="rgba(255,255,255,0.45)"/>
    <rect x="16" y="0" width="14.5" height="14.5" rx="3" fill="url(#g-o2)" stroke="rgba(255,255,255,0.35)" stroke-width="0.8"/>
    <rect x="18" y="1.5" width="9.5" height="4" rx="2" fill="rgba(255,255,255,0.45)"/>
    <rect x="0" y="16" width="14.5" height="14.5" rx="3" fill="url(#g-o2)" stroke="rgba(255,255,255,0.35)" stroke-width="0.8"/>
    <rect x="2" y="17.5" width="9.5" height="4" rx="2" fill="rgba(255,255,255,0.45)"/>
    <rect x="16" y="16" width="14.5" height="14.5" rx="3" fill="url(#g-o2)" stroke="rgba(255,255,255,0.35)" stroke-width="0.8"/>
    <rect x="18" y="17.5" width="9.5" height="4" rx="2" fill="rgba(255,255,255,0.45)"/>
  </g>
</svg>
